<?xml version="1.0" encoding="UTF-8" standalone="no"?>
<!DOCTYPE svg PUBLIC "-//W3C//DTD SVG 1.1//EN" "http://www.w3.org/Graphics/SVG/1.1/DTD/svg11.dtd">
<svg width="100%" height="100%" viewBox="0 0 3782 3061" version="1.1" xmlns="http://www.w3.org/2000/svg" xmlns:xlink="http://www.w3.org/1999/xlink" xml:space="preserve" xmlns:serif="http://www.serif.com/" style="fill-rule:evenodd;clip-rule:evenodd;stroke-linejoin:round;stroke-miterlimit:2;">
    <g transform="matrix(1.33333,0,0,1.33333,-452.285,-148.639)">
        <g transform="matrix(2.53867,0,0,1.35076,-3445.45,-476.783)">
            <path d="M2381.69,1571.24C2390.88,1571.24 2433.26,1586.2 2429.88,1610.84C2388.26,1913.75 2503.82,1959.79 2491.72,2048.17C2491.04,2053.12 2477.44,2083.25 2475.87,2074.21C2442.04,1878.95 2291.84,2015.95 2301.6,2131.12C2302.87,2146.11 2290.01,2114.31 2287.13,2103.01C2265.6,2018.58 2321.17,1946.76 2325.43,1937.93C2327.47,1933.7 2241.32,1939.02 2222.32,2011.1C2221.1,2015.7 2219.43,2002.59 2219.02,1991.7C2217.17,1941.51 2242.39,1921.88 2256.78,1913.66C2279.86,1900.46 2310.85,1889.48 2327.96,1867.6C2360.65,1825.81 2364.02,1757.38 2364.02,1737.44C2364.02,1695 2359.11,1658.96 2352.43,1619.29C2346.83,1585.99 2368.04,1571.24 2381.69,1571.24Z" style="fill:rgb(241,172,74);"/>
        </g>
        <g transform="matrix(1.34652,0,0,1.34652,-605.33,-431.271)">
            <path d="M2143.82,1526.21C2151.73,1525.99 2163.97,1530.88 2168.85,1543.06C2179.97,1570.74 2172.8,1755.11 2165.05,1791.53C2158.84,1820.74 2036.7,1849.64 1999.85,1893.02C1972.58,1925.11 1957.76,1972.91 1951.82,2031.1C1950.77,2041.3 1938.95,1994.64 1938.57,1992.04C1925.42,1902.57 1946.84,1882.52 1945.7,1881.55C1943.78,1879.9 1880.22,1844.49 1701.22,1955.28C1696.4,1958.26 1691.84,1946.39 1692.54,1939.58C1693.83,1927.08 1692.79,1913.1 1722.2,1890.33C1827.06,1809.15 1946.59,1809.21 1947.42,1808.25C1950.61,1804.55 1880.5,1779.87 1752.6,1819.82C1738.8,1824.13 1736.41,1812.41 1737.81,1810.95C1837.74,1706.65 2046.75,1789.19 2072.54,1741.86C2085.7,1717.7 2086.7,1583.79 2068.85,1553.29C2049.57,1520.36 2127.55,1526.66 2143.82,1526.21Z" style="fill:rgb(241,172,74);"/>
        </g>
        <g transform="matrix(1.25108,0.497892,-0.497892,1.25108,221.077,-710.024)">
            <path d="M1115.2,1439.97C1283.52,1432.75 1432.43,1417.4 1524.5,1425.64C1548.25,1427.77 1547.06,1477.13 1547.06,1486.75C1547.06,1495.75 1537.59,1536.53 1523.55,1536.66C1455.63,1537.3 1287.19,1538.25 1114.13,1538.25C926.576,1538.25 777.275,1541.69 709.643,1536.68C698.813,1535.88 700.116,1501.02 700.116,1494.49C700.116,1486.87 703.21,1454.7 717.203,1452.62C761.073,1446.11 934.288,1447.72 1115.2,1439.97Z" style="fill:rgb(181,101,57);"/>
        </g>
        <g transform="matrix(1.34044,-0.127724,0.127724,1.34044,-810.901,-244.027)">
            <path d="M1348.68,1686.92C1418.39,1517.68 1536.06,1553.85 1458.92,1716.1C1379.59,1882.93 1207.24,1970.96 1126,2003.81C1078.17,2023.15 1280.26,1853.03 1348.68,1686.92Z" style="fill:rgb(9,245,237);"/>
        </g>
        <g transform="matrix(0.872086,1.02595,1.02595,-0.872086,-1677.11,1897.3)">
            <path d="M1348.68,1686.92C1418.39,1517.68 1536.06,1553.85 1458.92,1716.1C1379.59,1882.93 1207.24,1970.96 1126,2003.81C1078.17,2023.15 1280.26,1853.03 1348.68,1686.92Z" style="fill:rgb(9,245,237);"/>
        </g>
        <g transform="matrix(1.34652,0,0,1.34652,-605.33,-431.271)">
            <path d="M2132.22,406.821C2417.24,424.242 2746.56,532.018 2803.69,928.943C2830.96,1118.45 2715.67,1313.62 2609.34,1458.58C2552.59,1535.94 2497.63,1623.23 2385.72,1623.23C2344.65,1623.23 2273.3,1586.93 2237.74,1517.75C2234.75,1511.93 2185.26,1565.45 2123.09,1563.15C2070.81,1561.21 2028.93,1537.48 2005.16,1513.96C2000.52,1509.37 1961.39,1488 1856.18,1290.06C1803.06,1190.12 1737.14,1146.83 1683.67,1143.36C1653.11,1141.38 1566.7,1162.85 1526.29,1155.61C1499.45,1150.81 1462.69,1136 1444.53,1117.28C1377.34,1048.04 1383.8,1097.27 1323.83,1174.59C1289.65,1218.66 1238.43,1227.8 1217,1231.66C1194.63,1235.7 1175.02,1237.73 1151.98,1233.36C880.748,1181.95 855.097,888.041 1008.56,761.401C1091.09,693.289 1264,696.967 1288.36,702.28C1290.67,702.785 1431.52,363.995 2132.22,406.821Z" style="fill:rgb(152,95,51);"/>
        </g>
        <g transform="matrix(1.34652,0,0,1.34652,-605.33,-431.271)">
            <path d="M1016.5,987.529C1040.27,956.981 1048.16,936.182 1068.88,943.915C1080.91,948.408 1085.3,956.683 1089.01,967.214C1095.83,986.634 1087.44,1006.01 1075.4,1013.79C1070.21,1017.15 1060.17,1021.18 1052.31,1019.92C1034.47,1017.06 1007.07,999.638 1016.5,987.529Z" style="fill:rgb(52,46,33);"/>
        </g>
        <g transform="matrix(1.34652,0,0,1.34652,-605.33,-431.271)">
            <path d="M1019.25,1096.96C1048.09,1096.96 1174.65,1208.8 1116.91,1223.74C1102.89,1227.37 1073.98,1223.25 1044.77,1250.35C1029.59,1264.44 1012.88,1281.2 999.63,1303.3C972.5,1348.53 961.19,1405.89 951.668,1438.76C932.414,1505.22 919.787,1682.33 919.945,1731.89C919.969,1739.28 869.62,1642.39 888.217,1482.6C897.903,1399.38 917.53,1314.71 941.376,1245.97C963.962,1180.87 990.657,1096.96 1019.25,1096.96Z" style="fill:rgb(241,172,74);"/>
        </g>
    </g>
</svg>
